<svg xmlns="http://www.w3.org/2000/svg" width="1235" height="16" fill="none"><path stroke="#BDDCF2" stroke-miterlimit="10" stroke-width="6" d="M0 3.5c10.106 0 10.106 9 20.238 9 10.131 0 10.105-9 20.237-9 10.131 0 10.131 9 20.237 9 10.106 0 10.132-9 20.238-9s10.132 9 20.237 9c10.106 0 10.132-9 20.238-9s10.106 9 20.237 9c10.132 0 10.132-9 20.238-9s10.131 9 20.237 9c10.106 0 10.132-9 20.238-9s10.131 9 20.237 9c10.106 0 10.132-9 20.238-9s10.131 9 20.237 9c10.106 0 10.132-9 20.238-9 10.105 0 10.131 9 20.237 9 10.106 0 10.132-9 20.238-9 10.105 0 10.131 9 20.237 9 10.106 0 10.132-9 20.238-9 10.105 0 10.131 9 20.237 9 10.106 0 10.132-9 20.237-9 10.106 0 10.132 9 20.238 9s10.132-9 20.237-9c10.106 0 10.132 9 20.238 9s10.131-9 20.237-9c10.106 0 10.132 9 20.238 9s10.131-9 20.237-9c10.106 0 10.132 9 20.238 9s10.131-9 20.237-9c10.106 0 10.132 9 20.238 9s10.131-9 20.237-9c10.106 0 10.132 9 20.238 9s10.131-9 20.237-9c10.106 0 10.132 9 20.238 9 10.105 0 10.131-9 20.237-9 10.106 0 10.132 9 20.238 9 10.105 0 10.131-9 20.237-9 10.106 0 10.106 9 20.238 9 10.131 0 10.131-9 20.237-9 10.106 0 10.132 9 20.237 9 10.106 0 10.106-9 20.238-9 10.131 0 10.132 9 20.237 9 10.106 0 10.132-9 20.238-9s10.131 9 20.237 9c10.106 0 10.132-9 20.238-9s10.131 9 20.237 9c10.106 0 10.132-9 20.238-9s10.131 9 20.263 9c10.132 0 10.132-9 20.263-9 10.132 0 10.132 9 20.263 9 10.127 0 10.127-9 20.267-9 10.13 0 10.13 9 20.26 9s10.13-9 20.26-9 10.13 9 20.27 9c10.13 0 10.13-9 20.26-9s10.13 9 20.26 9 10.13-9 20.27-9c10.13 0 10.13 9 20.26 9s10.13-9 20.26-9 10.13 9 20.27 9c10.13 0 10.13-9 20.26-9s10.13 9 20.26 9"/></svg>