<?xml version="1.0" encoding="utf-8"?>
<!-- Generator: Adobe Illustrator 27.4.1, SVG Export Plug-In . SVG Version: 6.00 Build 0)  -->
<svg version="1.1" id="Layer_1" xmlns="http://www.w3.org/2000/svg" xmlns:xlink="http://www.w3.org/1999/xlink" x="0px" y="0px"
	 viewBox="0 0 1440 16.5" style="enable-background:new 0 0 1440 16.5;" xml:space="preserve">
<style type="text/css">
	.st0{fill:none;}
	.st1{fill:#FCE1E5;}
</style>
<path class="st0" d="M101,2.5"/>
<path class="st1" d="M864,0H0v4.6c3,0,4.3,1,6.1,2.4c1.9,1.5,4.1,3.1,8.3,3.1c4.2,0,6.4-1.6,8.3-3.1c1.7-1.3,3.1-2.4,6.1-2.4
	c3,0,4.3,1,6.1,2.4c1.9,1.5,4.1,3.1,8.3,3.1c4.2,0,6.4-1.6,8.3-3.1c1.8-1.3,3.1-2.4,6.1-2.4c3,0,4.3,1,6.1,2.4
	c1.9,1.5,4.1,3.1,8.3,3.1c4.2,0,6.4-1.6,8.3-3.1c1.8-1.3,3.1-2.4,6.1-2.4c3,0,4.3,1,6.1,2.4c1.9,1.5,4.1,3.1,8.3,3.1
	s6.4-1.6,8.3-3.1c1.7-1.3,3.1-2.4,6.1-2.4c3,0,4.3,1,6.1,2.4c1.9,1.5,4.1,3.1,8.3,3.1s6.4-1.6,8.3-3.1c1.7-1.3,3.1-2.4,6.1-2.4
	c3,0,4.3,1,6.1,2.4c1.9,1.5,4.1,3.1,8.3,3.1s6.4-1.6,8.3-3.1c1.8-1.3,3.1-2.4,6.1-2.4c3,0,4.3,1,6.1,2.4c1.9,1.5,4.1,3.1,8.3,3.1
	s6.4-1.6,8.3-3.1c1.8-1.3,3.1-2.4,6.1-2.4c3,0,4.3,1,6.1,2.4c1.9,1.5,4.1,3.1,8.3,3.1c4.2,0,6.4-1.6,8.3-3.1
	c1.8-1.3,3.1-2.4,6.1-2.4c3,0,4.3,1,6.1,2.4c1.9,1.5,4.1,3.1,8.3,3.1c4.2,0,6.4-1.6,8.3-3.1c1.8-1.3,3.1-2.4,6.1-2.4
	c3,0,4.3,1,6.1,2.4c1.9,1.5,4.1,3.1,8.3,3.1c4.2,0,6.4-1.6,8.3-3.1c1.8-1.3,3.1-2.4,6.1-2.4s4.3,1,6.1,2.4c1.9,1.5,4.1,3.1,8.3,3.1
	c4.2,0,6.4-1.6,8.3-3.1c1.8-1.3,3.1-2.4,6.1-2.4c3,0,4.3,1,6.1,2.4c1.9,1.5,4.1,3.1,8.3,3.1c4.2,0,6.4-1.6,8.3-3.1
	c1.8-1.3,3.1-2.4,6.1-2.4c3,0,4.3,1,6.1,2.4c1.9,1.5,4.1,3.1,8.3,3.1c4.2,0,6.4-1.6,8.3-3.1c1.8-1.3,3.1-2.4,6.1-2.4
	c3,0,4.3,1,6.1,2.4c1.9,1.5,4.1,3.1,8.3,3.1c4.2,0,6.4-1.6,8.3-3.1c1.8-1.3,3.1-2.4,6.1-2.4c3,0,4.3,1,6.1,2.4
	c1.9,1.5,4.1,3.1,8.3,3.1c4.2,0,6.4-1.6,8.3-3.1c1.8-1.3,3.1-2.4,6.1-2.4c3,0,4.3,1,6.1,2.4c1.9,1.5,4.1,3.1,8.3,3.1
	c4.2,0,6.4-1.6,8.3-3.1c1.8-1.3,3.1-2.4,6.1-2.4c3,0,4.3,1,6.1,2.4c1.9,1.5,4.1,3.1,8.3,3.1c4.2,0,6.4-1.6,8.3-3.1
	c1.8-1.3,3.1-2.4,6.1-2.4c3,0,4.3,1,6.1,2.4c1.9,1.5,4.1,3.1,8.3,3.1c4.2,0,6.4-1.6,8.3-3.1c1.8-1.3,3.1-2.4,6.1-2.4s4.3,1,6.1,2.4
	c1.9,1.5,4.1,3.1,8.3,3.1c4.2,0,6.4-1.6,8.3-3.1c1.7-1.3,3.1-2.4,6.1-2.4s4.3,1,6.1,2.4c1.9,1.5,4.1,3.1,8.3,3.1s6.4-1.6,8.3-3.1
	c1.7-1.3,3.1-2.4,6.1-2.4c3,0,4.3,1,6.1,2.4c1.9,1.5,4.1,3.1,8.3,3.1c4.2,0,6.4-1.6,8.3-3.1c1.8-1.3,3.1-2.4,6.1-2.4s4.3,1,6.1,2.4
	c1.9,1.5,4.1,3.1,8.3,3.1c4.2,0,6.4-1.6,8.3-3.1c1.8-1.3,3.1-2.4,6.1-2.4c3,0,4.3,1,6.1,2.4c1.9,1.5,4.1,3.1,8.3,3.1
	c4.2,0,6.4-1.6,8.3-3.1c1.7-1.3,3.1-2.4,6.1-2.4c3,0,4.3,1,6.1,2.4c2,1.5,4.1,3.1,8.4,3.1c4.2,0,6.4-1.6,8.3-3.1
	c1.7-1.3,3.1-2.4,6.1-2.4c3,0,4.4,1,6.1,2.4c1.9,1.5,4.1,3.1,8.3,3.1c4.2,0,6.4-1.6,8.3-3.1c1.8-1.3,3.1-2.4,6.1-2.4
	c3,0,4.3,1,6.1,2.4c1.9,1.5,4.1,3.1,8.3,3.1s6.4-1.6,8.3-3.1c1.7-1.3,3.1-2.4,6.1-2.4s4.3,1,6.1,2.4c1.9,1.5,4.1,3.1,8.3,3.1
	c4.2,0,6.4-1.6,8.3-3.1c1.7-1.3,3.1-2.4,6.1-2.4c3,0,4.4,1,6.1,2.4c1.9,1.5,4.1,3.1,8.3,3.1c4.2,0,6.4-1.6,8.3-3.1
	c1.8-1.3,3.1-2.4,6.1-2.4c3,0,4.3,1,6.1,2.4c1.9,1.5,4.1,3.1,8.3,3.1s6.4-1.6,8.3-3.1c1.7-1.3,3.1-2.4,6.1-2.4c3,0,4.3,1,6.1,2.4
	c1.9,1.5,4.1,3.1,8.3,3.1c4.2,0,6.4-1.6,8.3-3.1c1.7-1.3,3.1-2.4,6-2.4v0c3,0,4.3,1,6.1,2.4c1.9,1.5,4.1,3.1,8.3,3.1
	c4.2,0,6.4-1.6,8.3-3.1c1.7-1.3,3.1-2.4,6.1-2.4s4.3,1,6.1,2.4c1.9,1.5,4.1,3.1,8.3,3.1c4.2,0,6.4-1.6,8.3-3.1
	c1.8-1.3,3.1-2.4,6.1-2.4c3,0,4.3,1,6.1,2.4c1.9,1.5,4.1,3.1,8.3,3.1s6.4-1.6,8.3-3.1c1.8-1.3,3.1-2.4,6.1-2.4s4.3,1,6.1,2.4
	c1.9,1.5,4.1,3.1,8.3,3.1c4.2,0,6.4-1.6,8.3-3.1c1.7-1.3,3.1-2.4,6.1-2.4c3,0,4.3,1,6.1,2.4c1.9,1.5,4.1,3.1,8.3,3.1
	s6.4-1.6,8.3-3.1c1.7-1.3,3.1-2.4,6.1-2.4s4.3,1,6.1,2.4c1.9,1.5,4.1,3.1,8.3,3.1s6.4-1.6,8.3-3.1c1.8-1.3,3.1-2.4,6.1-2.4
	s4.3,1,6.1,2.4c1.9,1.5,4.1,3.1,8.3,3.1c4.2,0,6.4-1.6,8.3-3.1c1.8-1.3,3.1-2.4,6.1-2.4s4.3,1,6.1,2.4c1.9,1.5,4.1,3.1,8.3,3.1
	c4.2,0,6.4-1.6,8.3-3.1c1.8-1.3,3.1-2.4,6.1-2.4c3,0,4.3,1,6.1,2.4c1.9,1.5,4.1,3.1,8.3,3.1c4.2,0,6.4-1.6,8.3-3.1
	c1.8-1.3,3.1-2.4,6.1-2.4c3,0,4.3,1,6.1,2.4c1.9,1.5,4.1,3.1,8.3,3.1c4.2,0,6.4-1.6,8.3-3.1c1.8-1.3,3.1-2.4,6.1-2.4s4.3,1,6.1,2.4
	c1.9,1.5,4.1,3.1,8.3,3.1c4.2,0,6.4-1.6,8.3-3.1c1.8-1.3,3.1-2.4,6.1-2.4s4.3,1,6.1,2.4c1.9,1.5,4.1,3.1,8.3,3.1
	c4.2,0,6.4-1.6,8.3-3.1c1.8-1.3,3.1-2.4,6.1-2.4c3,0,4.3,1,6.1,2.4c1.9,1.5,4.1,3.1,8.3,3.1s6.4-1.6,8.3-3.1
	c1.8-1.3,3.1-2.4,6.1-2.4s4.3,1,6.1,2.4c1.9,1.5,4.1,3.1,8.3,3.1c4.2,0,6.4-1.6,8.3-3.1c1.8-1.3,3.1-2.4,6.1-2.4s4.3,1,6.1,2.4
	c1.9,1.5,4.1,3.1,8.3,3.1c4.2,0,6.4-1.6,8.3-3.1c1.8-1.3,3.1-2.4,6.1-2.4s4.3,1,6.1,2.4c1.9,1.5,4.1,3.1,8.3,3.1
	c4.2,0,6.4-1.6,8.3-3.1c1.8-1.3,3.1-2.4,6.1-2.4s4.3,1,6.1,2.4c1.9,1.5,4.1,3.1,8.3,3.1s6.4-1.6,8.3-3.1c1.8-1.3,3.1-2.4,6.1-2.4
	c3,0,4.3,1,6.1,2.4c1.9,1.5,4.1,3.1,8.3,3.1c4.2,0,6.4-1.6,8.3-3.1c1.8-1.3,3.1-2.4,6.1-2.4c3,0,4.3,1,6.1,2.4
	c1.9,1.5,4.1,3.1,8.3,3.1c4.2,0,6.4-1.6,8.3-3.1c1.7-1.3,3.1-2.4,6.1-2.4s4.3,1,6.1,2.4c1.9,1.5,4.1,3.1,8.3,3.1
	c4.2,0,6.4-1.6,8.3-3.1c1.7-1.3,3.1-2.4,6.1-2.4V0H864z"/>
</svg>
