<?xml version="1.0" encoding="utf-8"?>
<!-- Generator: Adobe Illustrator 27.3.1, SVG Export Plug-In . SVG Version: 6.00 Build 0)  -->
<svg version="1.1" id="Layer_1" xmlns="http://www.w3.org/2000/svg" xmlns:xlink="http://www.w3.org/1999/xlink" x="0px" y="0px"
	 viewBox="0 0 1440 16.5" style="enable-background:new 0 0 1440 16.5;" xml:space="preserve">
<style type="text/css">
	.st0{fill:none;}
	.st1{fill:#FFFFFF;}
</style>
<path class="st0" d="M101,2.5"/>
<path class="st1" d="M1440,16.5v-4.6c-3,0-4.4-1.1-6.1-2.4c-1.9-1.5-4.1-3.1-8.3-3.1c-4.2,0-6.4,1.6-8.3,3.1
	c-1.8,1.4-3.1,2.4-6.1,2.4s-4.4-1.1-6.1-2.4c-1.9-1.5-4.1-3.1-8.3-3.1c-4.2,0-6.4,1.6-8.3,3.1c-1.8,1.4-3.1,2.4-6.1,2.4
	s-4.3-1.1-6.1-2.4c-1.9-1.5-4.1-3.1-8.3-3.1c-4.2,0-6.4,1.6-8.3,3.1c-1.8,1.4-3.1,2.4-6.1,2.4s-4.3-1.1-6.1-2.4
	c-1.9-1.5-4.1-3.1-8.3-3.1s-6.4,1.6-8.3,3.1c-1.8,1.4-3.1,2.4-6.1,2.4s-4.3-1.1-6.1-2.4c-1.9-1.5-4.1-3.1-8.3-3.1
	c-4.2,0-6.4,1.6-8.3,3.1c-1.8,1.4-3.1,2.4-6.1,2.4s-4.3-1.1-6.1-2.4c-1.9-1.5-4.1-3.1-8.3-3.1c-4.2,0-6.4,1.6-8.3,3.1
	c-1.8,1.4-3.1,2.4-6.1,2.4s-4.3-1.1-6.1-2.4c-1.9-1.5-4.1-3.1-8.3-3.1c-4.2,0-6.4,1.6-8.3,3.1c-1.8,1.4-3.1,2.4-6.1,2.4
	s-4.3-1.1-6.1-2.4c-1.9-1.5-4.1-3.1-8.3-3.1s-6.4,1.6-8.3,3.1c-1.8,1.4-3.1,2.4-6.1,2.4s-4.3-1.1-6.1-2.4c-1.9-1.5-4.1-3.1-8.3-3.1
	c-4.2,0-6.4,1.6-8.3,3.1c-1.8,1.4-3.1,2.4-6.1,2.4s-4.3-1.1-6.1-2.4c-1.9-1.5-4.1-3.1-8.3-3.1c-4.2,0-6.4,1.6-8.3,3.1
	c-1.8,1.4-3.1,2.4-6.1,2.4s-4.3-1.1-6.1-2.4c-1.9-1.5-4.1-3.1-8.3-3.1c-4.2,0-6.4,1.6-8.3,3.1c-1.8,1.4-3.1,2.4-6.1,2.4
	s-4.3-1.1-6.1-2.4c-1.9-1.5-4.1-3.1-8.3-3.1c-4.2,0-6.4,1.6-8.3,3.1c-1.8,1.4-3.1,2.4-6.1,2.4s-4.3-1.1-6.1-2.4
	c-1.9-1.5-4.1-3.1-8.3-3.1c-4.2,0-6.4,1.6-8.3,3.1c-1.8,1.4-3.1,2.4-6.1,2.4s-4.3-1.1-6.1-2.4c-1.9-1.5-4.1-3.1-8.3-3.1
	c-4.2,0-6.4,1.6-8.3,3.1c-1.8,1.4-3.1,2.4-6.1,2.4s-4.3-1.1-6.1-2.4c-1.9-1.5-4.1-3.1-8.3-3.1s-6.4,1.6-8.3,3.1
	c-1.8,1.4-3.1,2.4-6.1,2.4s-4.4-1.1-6.1-2.4c-1.9-1.5-4.1-3.1-8.3-3.1s-6.4,1.6-8.3,3.1c-1.8,1.4-3.1,2.4-6.1,2.4s-4.4-1.1-6.1-2.4
	c-1.9-1.5-4.1-3.1-8.3-3.1s-6.4,1.6-8.3,3.1c-1.8,1.4-3.1,2.4-6.1,2.4s-4.3-1.1-6.1-2.4c-1.9-1.5-4.1-3.1-8.3-3.1s-6.4,1.6-8.3,3.1
	c-1.8,1.4-3.1,2.4-6.1,2.4s-4.3-1.1-6.1-2.4c-1.9-1.5-4.1-3.1-8.3-3.1s-6.4,1.6-8.3,3.1c-1.8,1.4-3.1,2.4-6.1,2.4s-4.4-1.1-6.1-2.4
	c-1.9-1.5-4.1-3.1-8.3-3.1S872,8,870.1,9.5c-1.8,1.4-3.1,2.4-6.1,2.4l0,0c-2.9,0-4.3-1.1-6-2.4c-1.9-1.5-4.1-3.1-8.3-3.1
	s-6.4,1.6-8.3,3.1c-1.8,1.4-3.1,2.4-6.1,2.4s-4.4-1.1-6.1-2.4c-1.9-1.5-4.1-3.1-8.3-3.1s-6.4,1.6-8.3,3.1c-1.8,1.4-3.1,2.4-6.1,2.4
	s-4.3-1.1-6.1-2.4c-1.9-1.5-4.1-3.1-8.3-3.1s-6.4,1.6-8.3,3.1c-1.7,1.4-3.1,2.4-6.1,2.4s-4.4-1.1-6.1-2.4c-1.9-1.5-4.1-3.1-8.3-3.1
	S756.9,8,755,9.5c-1.8,1.4-3.1,2.4-6.1,2.4s-4.4-1.1-6.1-2.4c-1.9-1.5-4.1-3.1-8.3-3.1s-6.4,1.6-8.3,3.1c-1.8,1.4-3.1,2.4-6.1,2.4
	s-4.3-1.1-6.1-2.4c-1.9-1.5-4.1-3.1-8.3-3.1s-6.4,1.6-8.3,3.1c-1.7,1.4-3.1,2.4-6.1,2.4s-4.4-1.1-6.1-2.4c-1.9-1.5-4.1-3.1-8.3-3.1
	c-4.3,0-6.4,1.6-8.4,3.1c-1.8,1.4-3.1,2.4-6.1,2.4s-4.4-1.1-6.1-2.4c-1.9-1.5-4.1-3.1-8.3-3.1s-6.4,1.6-8.3,3.1
	c-1.8,1.4-3.1,2.4-6.1,2.4s-4.3-1.1-6.1-2.4c-1.9-1.5-4.1-3.1-8.3-3.1s-6.4,1.6-8.3,3.1c-1.8,1.4-3.1,2.4-6.1,2.4s-4.3-1.1-6.1-2.4
	c-1.9-1.5-4.1-3.1-8.3-3.1S584,8,582.1,9.5c-1.8,1.4-3.1,2.4-6.1,2.4s-4.4-1.1-6.1-2.4c-1.9-1.5-4.1-3.1-8.3-3.1s-6.4,1.6-8.3,3.1
	c-1.8,1.4-3.1,2.4-6.1,2.4s-4.4-1.1-6.1-2.4c-1.9-1.5-4.1-3.1-8.3-3.1s-6.4,1.6-8.3,3.1c-1.8,1.4-3.1,2.4-6.1,2.4s-4.3-1.1-6.1-2.4
	c-1.9-1.5-4.1-3.1-8.3-3.1c-4.2,0-6.4,1.6-8.3,3.1c-1.8,1.4-3.1,2.4-6.1,2.4s-4.3-1.1-6.1-2.4c-1.9-1.5-4.1-3.1-8.3-3.1
	c-4.2,0-6.4,1.6-8.3,3.1c-1.8,1.4-3.1,2.4-6.1,2.4s-4.3-1.1-6.1-2.4c-1.9-1.5-4.1-3.1-8.3-3.1c-4.2,0-6.4,1.6-8.3,3.1
	c-1.8,1.4-3.1,2.4-6.1,2.4s-4.3-1.1-6.1-2.4c-1.9-1.5-4.1-3.1-8.3-3.1c-4.2,0-6.4,1.6-8.3,3.1c-1.8,1.4-3.1,2.4-6.1,2.4
	s-4.3-1.1-6.1-2.4c-1.9-1.5-4.1-3.1-8.3-3.1c-4.2,0-6.4,1.6-8.3,3.1c-1.8,1.4-3.1,2.4-6.1,2.4s-4.3-1.1-6.1-2.4
	c-1.9-1.5-4.1-3.1-8.3-3.1c-4.2,0-6.4,1.6-8.3,3.1c-1.8,1.4-3.1,2.4-6.1,2.4s-4.3-1.1-6.1-2.4c-1.9-1.5-4.1-3.1-8.3-3.1
	c-4.2,0-6.4,1.6-8.3,3.1c-1.8,1.4-3.1,2.4-6.1,2.4s-4.3-1.1-6.1-2.4c-1.9-1.5-4.1-3.1-8.3-3.1c-4.2,0-6.4,1.6-8.3,3.1
	c-1.8,1.4-3.1,2.4-6.1,2.4s-4.3-1.1-6.1-2.4c-1.9-1.5-4.1-3.1-8.3-3.1c-4.2,0-6.4,1.6-8.3,3.1c-1.8,1.4-3.1,2.4-6.1,2.4
	s-4.3-1.1-6.1-2.4c-1.9-1.5-4.1-3.1-8.3-3.1s-6.4,1.6-8.3,3.1c-1.8,1.4-3.1,2.4-6.1,2.4s-4.3-1.1-6.1-2.4c-1.9-1.5-4.1-3.1-8.3-3.1
	s-6.4,1.6-8.3,3.1c-1.8,1.4-3.1,2.4-6.1,2.4s-4.3-1.1-6.1-2.4c-1.9-1.5-4.1-3.1-8.3-3.1s-6.4,1.6-8.3,3.1c-1.8,1.4-3.1,2.4-6.1,2.4
	s-4.3-1.1-6.1-2.4c-1.9-1.5-4.1-3.1-8.3-3.1S152,8,150.1,9.5c-1.8,1.4-3.1,2.4-6.1,2.4s-4.4-1.1-6.1-2.4c-1.9-1.5-4.1-3.1-8.3-3.1
	c-4.2,0-6.4,1.6-8.3,3.1c-1.8,1.4-3.1,2.4-6.1,2.4s-4.4-1.1-6.1-2.4c-1.9-1.5-4.1-3.1-8.3-3.1S94.4,8,92.5,9.5
	c-1.8,1.4-3.1,2.4-6.1,2.4s-4.3-1.1-6.1-2.4C78.4,8,76.2,6.4,72,6.4c-4.2,0-6.4,1.6-8.3,3.1c-1.8,1.4-3.1,2.4-6.1,2.4
	s-4.3-1.1-6.1-2.4c-1.9-1.5-4.1-3.1-8.3-3.1S36.8,8,34.9,9.5c-1.8,1.4-3.1,2.4-6.1,2.4s-4.4-1.1-6.1-2.4c-1.9-1.5-4.1-3.1-8.3-3.1
	S8,8,6.1,9.5C4.3,10.9,3,11.9,0,11.9v4.6h864H1440z"/>
</svg>
